<?xml version="1.0" standalone="no"?>
<!DOCTYPE svg PUBLIC "-//W3C//DTD SVG 20010904//EN"
 "http://www.w3.org/TR/2001/REC-SVG-20010904/DTD/svg10.dtd">
<svg version="1.0" xmlns="http://www.w3.org/2000/svg"
 width="576.000000pt" height="91.000000pt" viewBox="0 0 576.000000 91.000000"
 preserveAspectRatio="xMidYMid meet">

<g transform="translate(0.000000,91.000000) scale(0.100000,-0.100000)"
fill="#000000" stroke="none">
<path d="M4820 820 c-43 -43 -10 -110 54 -110 25 0 39 7 50 22 35 49 7 108
-50 108 -21 0 -42 -8 -54 -20z"/>
<path d="M264 777 c-110 -53 -159 -149 -159 -317 0 -123 18 -187 70 -247 53
-63 120 -87 235 -87 53 0 112 5 133 13 36 12 38 15 32 44 -10 45 -18 51 -60
37 -20 -7 -69 -10 -109 -8 -132 6 -193 74 -203 226 -8 110 13 176 71 230 33
30 56 42 90 47 56 9 82 3 131 -30 l38 -27 30 30 c24 24 27 33 18 49 -19 37
-79 57 -176 61 -78 2 -97 0 -141 -21z"/>
<path d="M2370 460 l0 -330 45 0 45 0 0 269 c0 149 4 272 8 275 5 3 24 -57 44
-132 l35 -137 44 0 44 0 35 132 c19 72 38 135 43 139 4 4 7 -117 7 -269 l0
-277 45 0 45 0 0 330 0 330 -73 0 -73 0 -34 -140 c-19 -77 -37 -137 -41 -133
-3 5 -21 68 -39 141 l-32 132 -74 0 -74 0 0 -330z"/>
<path d="M3590 705 l0 -75 -60 0 -60 0 0 -45 0 -45 60 0 60 0 0 -122 c1 -177
17 -230 86 -270 38 -22 126 -33 199 -23 l56 7 -3 41 -3 42 -73 -3 c-142 -7
-162 18 -162 203 l0 125 115 0 115 0 0 45 0 45 -115 0 -115 0 0 75 0 75 -50 0
-50 0 0 -75z"/>
<path d="M857 629 c-59 -9 -110 -46 -139 -102 -30 -58 -37 -195 -14 -265 58
-174 304 -192 387 -29 13 24 23 69 26 113 15 200 -85 308 -260 283z m120 -114
c60 -69 55 -226 -9 -280 -55 -46 -125 -28 -159 42 -28 58 -23 179 8 221 43 58
118 66 160 17z"/>
<path d="M1985 630 c-65 -9 -110 -44 -142 -108 -25 -50 -28 -68 -28 -148 1
-111 27 -172 94 -219 38 -27 51 -30 114 -30 93 0 141 24 182 90 27 43 30 58
34 144 2 53 -2 111 -8 133 -13 41 -60 101 -95 120 -29 16 -102 25 -151 18z
m108 -107 c32 -29 47 -77 47 -150 0 -107 -40 -162 -116 -163 -91 0 -137 132
-93 268 22 66 110 91 162 45z"/>
<path d="M4356 629 c-50 -8 -96 -56 -96 -99 0 -17 -4 -30 -9 -30 -9 0 -21 57
-21 103 l0 27 -90 0 -90 0 0 -45 0 -45 50 0 50 0 0 -160 0 -160 -55 0 -55 0 0
-45 0 -45 165 0 165 0 0 45 0 45 -66 0 -67 0 6 103 c3 56 12 119 18 140 33
102 160 121 175 27 l7 -40 49 0 49 0 -7 48 c-7 52 -25 92 -49 112 -22 18 -83
27 -129 19z"/>
<path d="M1390 619 c-44 -18 -90 -59 -113 -102 -18 -35 -22 -58 -22 -137 0
-83 3 -101 25 -140 52 -92 156 -130 313 -116 83 8 87 13 71 72 -5 20 -10 21
-94 16 -78 -4 -94 -2 -135 18 -36 17 -52 33 -66 64 -22 49 -24 124 -5 170 38
90 154 113 232 44 l34 -30 32 28 c35 29 36 38 10 68 -36 40 -87 56 -174 55
-46 0 -94 -5 -108 -10z"/>
<path d="M3055 616 c-92 -41 -143 -177 -116 -307 16 -74 48 -119 112 -154 51
-28 60 -30 166 -30 61 0 114 3 118 7 4 4 4 24 0 45 l-6 39 -92 -4 c-107 -4
-147 11 -184 67 -41 61 -40 61 141 61 l164 0 6 28 c8 34 -8 132 -27 169 -19
36 -55 69 -90 82 -39 15 -156 13 -192 -3z m154 -79 c31 -16 58 -54 66 -94 l7
-33 -130 0 -130 0 10 38 c22 83 106 126 177 89z"/>
<path d="M4660 585 l0 -45 85 0 85 0 0 -160 0 -160 -95 0 -95 0 0 -45 0 -45
220 0 220 0 0 45 0 45 -80 0 -80 0 0 205 0 205 -130 0 -130 0 0 -45z"/>
<path d="M5314 611 c-49 -22 -97 -78 -113 -130 -14 -49 -14 -153 1 -202 16
-57 70 -114 126 -136 36 -14 73 -18 159 -17 62 0 115 3 118 6 3 3 3 23 -1 45
l-6 40 -92 -4 c-81 -4 -96 -2 -136 19 -63 32 -82 73 -78 165 3 64 7 76 33 103
58 60 154 62 212 4 l25 -25 39 27 39 26 -22 30 c-33 47 -90 68 -183 68 -56 0
-92 -6 -121 -19z"/>
</g>
</svg>
